PathFileType  4	(X/Y/Z) C:\Users\antoi\Documents\MyRepositories\mobilecap\ResultsAnalysis
DataRate	CameraRate	NumFrames	NumMarkers	Units	OrigDataRate	OrigDataStartFrame	OrigNumFrames
100.0	100.0	6	51	mm	100.0	87	138
Frame#	Time	r_knee			r_shank_antsup			r_ankle			r_calc			r_5meta			r_toe			L_knee			L_shank_antsup			L_ankle			L_calc			L_5meta			L_toe			r_sh2			r_sh3			r_sh4			L_sh2			L_sh3			r_thigh1			r_thigh2			r_thigh3			r_thigh4			r_thigh5			L_thigh1			L_thigh2			L_thigh3			L_thigh4			r.ASIS			r.PSIS			L.ASIS			L.PSIS			C7			R_Shoulder			L_Shoulder			R_Sternum			L_Sternum			R_humerus			R_elbow_med			R_elbow_lat			R_forearm			R_wrist_radius			R_wrist_ulna			L_humerus			L_elbow_med			L_elbow_lat			L_forearm			L_wrist_radius			L_wrist_ulna			R_HJC			L_HJC			R_HJC_reg			L_HJC_reg			
		X1	Y1	Z1	X2	Y2	Z2	X3	Y3	Z3	X4	Y4	Z4	X5	Y5	Z5	X6	Y6	Z6	X7	Y7	Z7	X8	Y8	Z8	X9	Y9	Z9	X10	Y10	Z10	X11	Y11	Z11	X12	Y12	Z12	X13	Y13	Z13	X14	Y14	Z14	X15	Y15	Z15	X16	Y16	Z16	X17	Y17	Z17	X18	Y18	Z18	X19	Y19	Z19	X20	Y20	Z20	X21	Y21	Z21	X22	Y22	Z22	X23	Y23	Z23	X24	Y24	Z24	X25	Y25	Z25	X26	Y26	Z26	X27	Y27	Z27	X28	Y28	Z28	X29	Y29	Z29	X30	Y30	Z30	X31	Y31	Z31	X32	Y32	Z32	X33	Y33	Z33	X34	Y34	Z34	X35	Y35	Z35	X36	Y36	Z36	X37	Y37	Z37	X38	Y38	Z38	X39	Y39	Z39	X40	Y40	Z40	X41	Y41	Z41	X42	Y42	Z42	X43	Y43	Z43	X44	Y44	Z44	X45	Y45	Z45	X46	Y46	Z46	X47	Y47	Z47	X48	Y48	Z48	X49	Y49	Z49	X50	Y50	Z50	X51	Y51	Z51	

87	0.86000000	1129.35005	522.78155	-38.64373	1140.22951	445.81083	-57.71696	899.31171	203.81843	-71.42172	826.54233	219.03632	-110.90567	949.23371	91.37761	-46.26967	1006.59900	91.38885	-99.00735	968.61705	493.48906	-320.95912	993.12829	395.83042	-318.11766	903.38958	97.80972	-273.65058	833.87217	64.13745	-225.63431	1005.12465	39.97090	-314.84826	1047.21255	60.74959	-260.24658	1058.10613	362.73702	-37.39230	1080.70567	497.49398	-28.67905	1003.14904	415.47858	-30.44726	902.83198	414.01802	-323.06383	892.21733	291.07390	-320.46972	1060.26323	834.86778	-20.21045	1105.41402	730.25655	-19.43146	1057.48266	688.14225	4.06869	957.17278	790.23915	-11.92201	1004.41016	683.54295	-17.23055	997.02280	759.07124	-383.06589	1008.07351	624.88694	-350.92111	884.51760	754.90030	-346.11872	899.78509	618.43575	-320.95110	1038.59869	974.03705	-73.40205	849.62855	1010.49914	-150.01349	1049.02743	956.10225	-324.07672	844.83120	1015.45977	-251.25294	853.40745	1421.15643	-228.04808	951.90147	1393.86583	-45.94792	943.76951	1381.00823	-404.33363	993.09980	1391.60960	-203.78426	996.78074	1392.03832	-244.86697	968.18274	1258.37255	17.24024	920.86916	1045.13342	-19.18548	938.07939	1062.65042	46.58732	1020.01149	948.95913	65.27200	1065.20039	819.88919	75.49770	1041.21776	813.58423	99.98956	982.42460	1265.75719	-456.17529	964.89053	1027.34809	-397.47987	994.07406	1051.54955	-468.41739	1076.58350	970.52165	-457.19655	1144.68335	825.87456	-458.63926	1124.88718	820.12598	-485.26766	962.10064	893.70479	-93.45273	963.55443	886.95633	-299.80825	975.57887	885.69598	-108.88191	967.72971	893.81030	-274.50654	
88	0.87000000	1144.47704	525.41864	-39.90581	1157.98707	449.04710	-59.07002	929.01880	195.26939	-71.57092	855.15197	207.00119	-110.73145	984.82004	85.61203	-46.62839	1041.94967	88.79342	-99.55991	971.67501	493.56995	-320.68994	995.38356	395.74366	-317.92642	903.66895	98.21576	-273.56961	834.04084	64.22591	-225.48505	1005.17489	39.94472	-314.86879	1047.22739	60.61708	-260.25921	1080.49406	361.84510	-39.06231	1096.41294	497.53457	-29.51469	1022.76853	412.02035	-30.67591	905.12798	414.60284	-322.67799	893.66511	291.75403	-320.29639	1071.60928	837.04949	-20.52776	1118.10147	733.08099	-20.12087	1070.85246	690.46685	4.18084	969.91156	791.29368	-10.84139	1017.66034	685.30234	-15.86912	1003.44164	758.81453	-382.64263	1012.69464	624.55158	-350.50356	891.05506	756.35975	-345.45312	904.43260	619.49229	-320.15287	1048.15769	975.07206	-74.09493	858.97105	1011.21621	-149.50223	1057.63766	956.09084	-324.59545	853.88391	1015.73467	-250.66706	862.55570	1421.56766	-228.89015	959.97739	1394.20996	-46.34305	953.50925	1381.96631	-404.71535	1001.97413	1392.22299	-204.01776	1005.77867	1392.79658	-245.07639	975.22459	1258.79351	17.29078	927.48167	1045.72868	-19.22073	943.99371	1063.29224	47.02918	1025.11536	949.28017	66.70696	1069.59860	820.01431	77.73181	1045.33992	813.86962	101.95989	994.48061	1267.83607	-456.80730	982.82194	1028.81156	-399.43103	1012.45670	1054.09485	-469.93292	1097.52986	975.92531	-457.32745	1171.23676	834.01218	-457.46903	1151.68980	827.45249	-484.46518	971.80111	894.61615	-93.20380	972.16346	887.07645	-299.53747	984.94161	886.65164	-108.99020	976.61618	894.04507	-274.53656	
89	0.88000000	1158.93217	527.67018	-41.04399	1175.06012	451.90829	-60.32025	959.29084	186.39374	-71.92075	884.54803	194.47040	-110.84431	1020.81834	79.96504	-47.05389	1077.67896	86.41230	-100.07375	974.88270	493.63675	-320.40678	997.74096	395.64336	-317.71139	903.99276	98.60441	-273.43681	834.10022	64.41748	-225.37223	1005.23437	39.90791	-314.87974	1047.30162	60.49836	-260.27920	1102.53947	360.81081	-40.51233	1111.40879	497.11052	-30.21955	1042.16020	408.04710	-30.93604	907.53632	415.12999	-322.32520	895.20856	292.40670	-320.08542	1082.87903	839.00617	-20.91699	1130.46617	735.55401	-20.94415	1083.90245	692.54687	4.30673	982.29767	792.31876	-9.60021	1030.51709	686.95255	-14.38591	1009.92293	758.49540	-382.17038	1017.39787	624.19209	-350.03919	897.68942	757.61122	-344.78251	909.22675	620.43185	-319.36082	1057.74990	975.82974	-74.67051	868.37576	1011.83593	-148.98526	1066.29218	955.89182	-324.95034	862.97584	1015.98361	-250.06329	871.73045	1421.79753	-229.67438	968.09700	1394.35191	-46.70639	963.25507	1382.70744	-405.07110	1010.88801	1392.65862	-204.23549	1014.80752	1393.36839	-245.27756	982.25196	1259.02404	17.37946	934.09048	1046.11822	-19.15110	949.92700	1063.79828	47.41941	1030.28339	949.44106	68.14003	1074.08595	819.99137	79.90743	1049.59807	814.00552	103.90569	1006.44381	1269.74211	-457.41143	1000.53916	1030.35616	-401.22422	1030.58698	1056.60630	-471.32254	1118.07694	981.37107	-457.45437	1197.16138	842.33936	-456.22481	1177.93396	834.98222	-483.50141	981.42798	895.33342	-92.90719	980.77595	887.06903	-299.21228	994.31167	887.37352	-109.00886	985.47334	894.16185	-274.43670	
90	0.89000000	1172.62143	529.52471	-42.04780	1191.39586	454.38843	-61.43320	990.11832	177.29567	-72.45741	914.76184	181.54147	-111.21276	1057.21073	74.54388	-47.54118	1113.76741	84.37274	-100.56516	978.18557	493.65990	-320.10080	1000.18601	395.53328	-317.46731	904.33619	98.98062	-273.25660	834.09533	64.69039	-225.27561	1005.30702	39.85738	-314.87342	1047.48120	60.41086	-260.30787	1124.16026	359.63859	-41.68138	1125.64992	496.20390	-30.85028	1061.27398	403.58669	-31.26881	910.05226	415.60093	-322.01333	896.84310	293.03576	-319.83901	1094.07855	840.71978	-21.39847	1142.47692	737.63217	-21.90247	1096.65919	694.32856	4.45676	994.28235	793.27336	-8.23670	1042.96800	688.44657	-12.84375	1016.49789	758.10001	-381.66216	1022.22867	623.79134	-349.51544	904.37142	758.65831	-344.12738	914.17520	621.25840	-318.59227	1067.39795	976.32355	-75.12158	877.83671	1012.33431	-148.45751	1075.03083	955.48548	-325.14850	872.09970	1016.19420	-249.44617	880.93574	1421.84635	-230.39546	976.29993	1394.30466	-47.03870	973.01695	1383.21877	-405.39944	1019.86014	1392.90631	-204.43855	1023.89502	1393.73085	-245.47511	989.30645	1259.06789	17.49054	940.70586	1046.31430	-19.00294	955.87302	1064.18411	47.70386	1035.52034	949.44466	69.56034	1078.65493	819.83731	82.02966	1053.98084	813.98867	105.84547	1018.30078	1271.44794	-457.97996	1018.08059	1031.90798	-402.85605	1048.45185	1059.06089	-472.59672	1138.21826	986.81602	-457.56429	1222.42643	850.78686	-454.92164	1203.59052	842.65583	-482.39418	991.00247	895.85659	-92.55258	989.41576	886.91666	-298.82374	1003.73158	887.82614	-108.94178	994.34196	894.14389	-274.22128	
91	0.90000000	1185.47199	530.94097	-42.93482	1206.94666	456.48888	-62.39830	1021.46010	168.13398	-73.12303	945.80699	168.37119	-111.77620	1093.98804	69.47439	-48.08559	1150.17075	82.79327	-101.05948	981.51658	493.61275	-319.76852	1002.69067	395.41627	-317.20076	904.67555	99.35329	-273.04297	834.08048	65.01778	-225.17777	1005.39193	39.79417	-314.84622	1047.79493	60.36438	-260.34569	1145.29329	358.31897	-42.58476	1139.12664	494.76901	-31.45475	1080.07327	398.66468	-31.70599	912.65565	416.03263	-321.73675	898.55082	293.64774	-319.56482	1105.20619	842.13442	-21.98375	1154.11644	739.27168	-22.96703	1109.10925	695.76781	4.62009	1005.84701	794.10089	-6.81365	1055.02012	689.70255	-11.32236	1023.17827	757.62135	-381.13858	1027.19758	623.34166	-348.93467	911.06874	759.57049	-343.54084	919.27522	621.98302	-317.86323	1077.10885	976.56003	-75.44213	887.34970	1012.67953	-147.90741	1083.89670	954.85849	-325.21067	881.26172	1016.33459	-248.81542	890.16728	1421.72188	-231.04852	984.62317	1394.08619	-47.33867	982.80887	1383.50067	-405.69662	1028.90438	1392.96216	-204.62598	1033.06878	1393.87396	-245.66858	996.42893	1258.93564	17.61253	947.34506	1046.33425	-18.80651	961.83745	1064.44941	47.88682	1040.83067	949.29968	70.95845	1083.30847	819.58832	84.12117	1058.46135	813.81860	107.79683	1030.04289	1272.93075	-458.50602	1035.48758	1033.39765	-404.32858	1066.03996	1061.44076	-473.75776	1157.94909	992.22634	-457.63791	1247.02039	859.30364	-453.56606	1228.62939	850.42579	-481.15961	1000.55042	896.17461	-92.13503	998.11402	886.60078	-298.36884	1013.22665	887.98375	-108.79519	1003.26446	893.96552	-273.91648	
92	0.91000000	1197.44766	531.84707	-43.74590	1221.68028	458.21872	-63.22817	1053.25117	159.10680	-73.83477	977.67197	155.16616	-112.45302	1131.13176	64.90425	-48.68195	1186.80213	81.78602	-101.58271	984.83341	493.48925	-319.41656	1005.22194	395.29106	-316.92915	904.99875	99.72934	-272.81557	834.10126	65.37692	-225.07085	1005.48094	39.72476	-314.80319	1048.22779	60.35152	-260.39171	1165.89350	356.85091	-43.28768	1151.85562	492.75388	-32.06661	1098.54058	393.31538	-32.26276	915.32003	416.44978	-321.48399	900.30871	294.24901	-319.27426	1116.24256	843.16630	-22.66653	1165.37500	740.42519	-24.09244	1121.19915	696.81951	4.76489	1016.98723	794.73863	-5.40128	1066.67634	690.62443	-9.90605	1029.96675	757.05874	-380.62077	1032.28274	622.84657	-348.31485	917.78455	760.45792	-343.09215	924.52413	622.61770	-317.19049	1086.86970	976.53361	-75.62931	896.91423	1012.84037	-147.32404	1092.92488	954.01065	-325.16069	890.48114	1016.36292	-248.16869	899.42069	1421.43492	-231.63024	993.09430	1393.71560	-47.60324	992.65147	1383.56459	-405.95697	1038.03157	1392.82512	-204.79396	1042.35158	1393.79667	-245.84995	1003.65893	1258.64282	17.73962	954.03496	1046.19825	-18.59135	967.84422	1064.58068	48.01523	1046.22132	949.01878	72.32556	1088.06211	819.29002	86.22230	1063.00345	813.50169	109.76327	1041.67011	1274.17331	-458.98181	1052.77696	1034.77990	-405.64575	1083.34331	1063.72864	-474.80073	1177.26617	997.57475	-457.65236	1270.94315	867.85106	-452.15749	1253.02306	858.25055	-479.81470	1010.09203	896.26600	-91.65821	1006.90213	886.10861	-297.85375	1022.79611	887.83921	-108.57648	1012.27218	893.60252	-273.54998	
